<?xml version="1.0" standalone="no"?><!DOCTYPE svg PUBLIC "-//W3C//DTD SVG 1.1//EN" "http://www.w3.org/Graphics/SVG/1.1/DTD/svg11.dtd"><svg t="1655522410422" class="icon" viewBox="0 0 1024 1024" version="1.1" xmlns="http://www.w3.org/2000/svg" p-id="3540" xmlns:xlink="http://www.w3.org/1999/xlink" width="200" height="200"><defs><style type="text/css">@font-face { font-family: feedback-iconfont; src: url("//at.alicdn.com/t/font_1031158_u69w8yhxdu.woff2?t=1630033759944") format("woff2"), url("//at.alicdn.com/t/font_1031158_u69w8yhxdu.woff?t=1630033759944") format("woff"), url("//at.alicdn.com/t/font_1031158_u69w8yhxdu.ttf?t=1630033759944") format("truetype"); }
</style></defs><path d="M223.962372 607.897867c-52.980346 0-95.983874-43.003528-95.983874-95.983874s43.003528-95.983874 95.983874-95.983874 95.983874 43.003528 95.983874 95.983874S276.942718 607.897867 223.962372 607.897867z" p-id="3541"></path><path d="M511.913993 607.897867c-52.980346 0-95.983874-43.003528-95.983874-95.983874s43.003528-95.983874 95.983874-95.983874 95.983874 43.003528 95.983874 95.983874S564.894339 607.897867 511.913993 607.897867z" p-id="3542"></path><path d="M800.037628 607.897867c-52.980346 0-95.983874-43.003528-95.983874-95.983874s43.003528-95.983874 95.983874-95.983874 95.983874 43.003528 95.983874 95.983874S852.84596 607.897867 800.037628 607.897867z" p-id="3543"></path></svg>